<?xml version="1.0" encoding="utf-8"?>
<!-- Generator: Adobe Illustrator 25.0.1, SVG Export Plug-In . SVG Version: 6.00 Build 0)  -->
<svg version="1.1" id="Layer_1" xmlns="http://www.w3.org/2000/svg" xmlns:xlink="http://www.w3.org/1999/xlink" x="0px" y="0px"
	 viewBox="0 0 841.9 595.3" style="enable-background:new 0 0 841.9 595.3;" xml:space="preserve">
<style type="text/css">
	.st0{fill:#FFFFFF;}
</style>
<g>
	<g>
		<path class="st0" d="M288.1,383.9h-76.4V324l-12-0.1v60h-78.4V210.1h78.4v56.4h9.9v-56.4h78.4V383.9z M213.7,381.9h72.4V212.1
			h-74.5v56.4h-13.9v-56.4h-74.5v169.8h74.5v-60l15.9,0.2V381.9z"/>
	</g>
	<g>
		<path class="st0" d="M287.1,383.8L287.1,383.8l-72.1-0.2c-0.4,0-0.8-0.3-0.9-0.7c-0.1-0.4,0-0.8,0.3-1.1l30.3-23.9v-50.6
			c-58.1,10.7-121.4,43.1-122,43.4c-0.5,0.2-1.1,0.1-1.3-0.4c-0.3-0.5-0.1-1.1,0.4-1.3c0.6-0.3,64.4-33,122.9-43.6v-4.5l-31.1,7.8
			c-0.2,0-0.4,0-0.6,0L177.3,293c-0.3-0.1-0.6-0.5-0.6-0.9c0-0.4,0.2-0.7,0.5-0.9l33.5-18.5c0.3-0.7,0.9-1.8,2.4-3
			c1.5-1.2,8.7-9,11.4-11.9c0.1-0.1,0.2-0.1,0.3-0.2c0,0,2-1.1,4.4-4.5c0.9-1.3,2.1-2.4,3.1-3.4c1.9-1.8,3.6-3.4,4.1-6.4l0.7-5.1
			l0.2-2.7c0-0.1,0-0.2,0.1-0.3c0.2-0.6,1.3-1.7,2.3-2.6c2-2,5.9-2.8,6-2.8l12.7,0c0.1,0,0.2,0,0.3,0.1c0,0,4.4,1.5,5.5,1.8
			c1.2,0.4,3,1.1,3,1.1c0.1,0,1.8,0.5,3.4,2.9c0.3,0.4,0.4,0.6,0.5,0.7c0.1,0.1,0.1,0.1,0.2,0.2l0,0c0,0,0,0,0,0
			c0.2,0.3,0.5,0.7,0.8,1.2c1.8,2.9,2.4,3.7,3,4.7c1,1.4,3.1,3.5,3.7,4.1l2.9,1l5.3-0.1c0.4-0.1,1,0.4,1,1l0.5,16.8l-0.2,117.5
			c0,0.3-0.1,0.5-0.3,0.7C287.6,383.7,287.4,383.8,287.1,383.8z M217.9,381.6l68.3,0.2l0.2-116.5l-0.5-15.8l-4.5,0
			c-0.1,0-0.2,0-0.3-0.1l-3.3-1.1c-0.1,0-0.3-0.1-0.4-0.2c-0.1-0.1-2.8-2.7-4.1-4.5c-0.7-1-1.2-1.8-3.1-4.8c-0.4-0.7-0.7-1-0.8-1.2
			c-0.2-0.2-0.4-0.6-0.7-0.9c-1.2-1.8-2.3-2.1-2.4-2.2c-0.1,0-1.9-0.8-3-1.1c-1-0.3-4.6-1.5-5.4-1.8h-12.3c0,0-3.3,0.7-4.8,2.3
			c-1.1,1.1-1.6,1.7-1.8,1.9l-0.2,2.6l-0.7,5.2c-0.5,3.7-2.6,5.7-4.7,7.6c-1,0.9-2,1.9-2.9,3.1c-2.3,3.3-4.3,4.7-4.9,5
			c-1.1,1.2-9.7,10.6-11.5,12c-1.5,1.2-1.9,2.3-1.9,2.4l0,0l-0.3,1.5l1.7,5.1l1.6,1.9c0.8,0.4,4.1,2,7.1,2c1.5,0,2.2,0.1,2.8,0.1
			c0.9,0.1,1.5,0.1,4.1-0.1c3.3-0.3,4.2-0.2,4.9-0.1c0.2,0,0.4,0.1,0.7,0.1c1.4,0,2.3,1.5,2.6,2.2l5.7,3.9c0.1,0.1,0.3,0.2,0.3,0.4
			l2.9,6.4c0.1,0.1,0.1,0.3,0.1,0.4v2c0,0,0,0,0,0v6.5c0,0,0,0,0,0v52.3c0,0.3-0.1,0.6-0.4,0.8L217.9,381.6z M179.9,292l33.5,14.5
			l31.3-7.8v-1l-2.7-5.9l-5.7-3.9c-0.2-0.1-0.3-0.3-0.4-0.4c-0.3-0.6-0.7-1.2-0.9-1.2c-0.4,0-0.6,0-0.9-0.1
			c-0.6-0.1-1.5-0.2-4.5,0.1c-2.8,0.2-3.5,0.2-4.4,0.1c-0.6,0-1.3-0.1-2.6-0.1c-3.9,0-8-2.2-8.2-2.3c-0.1-0.1-0.2-0.1-0.3-0.2
			l-1.8-2.2c-0.1-0.1-0.1-0.2-0.2-0.3l-1.8-5.5c0-0.1,0-0.2,0-0.3L179.9,292z M252.7,356.7c-0.2,0-0.3,0-0.5-0.1
			c-0.3-0.2-0.5-0.5-0.5-0.9v-60c0-8.5,3.3-15.2,3.4-15.4c0.2-0.4,0.6-0.6,1-0.5c0.4,0.1,0.8,0.4,0.8,0.8l2.2,11.7l0,59.8
			c0,0.3-0.2,0.6-0.4,0.8l-5.5,3.7C253.1,356.7,252.9,356.7,252.7,356.7z M255.7,284.3c-0.9,2.7-2,6.8-2,11.5v58.1l3.5-2.3v-59.1
			L255.7,284.3z M263.7,350.5c-0.2,0-0.3,0-0.4-0.1c-0.3-0.2-0.5-0.5-0.5-0.9c0-0.4,0.4-39.1,0-43.8c-0.4-4.8,2.8-20.1,3-20.7
			c0.1-0.5,0.5-0.8,1-0.8c0.5,0,0.9,0.4,0.9,0.9l2.9,60c0,0.3-0.1,0.6-0.4,0.8l-5.9,4.4C264.1,350.5,263.9,350.5,263.7,350.5z
			 M266.1,293.5c-0.8,4.5-1.6,9.8-1.4,12.1c0.3,4.2,0.1,33.9,0,42l3.9-2.9L266.1,293.5z M279.2,343.9h-4.4c-0.5,0-1-0.4-1-1v-57.8
			c0-0.2,0.1-0.4,0.2-0.6l3.3-4.4c0.2-0.2,0.5-0.4,0.8-0.4l0,0c0.3,0,0.6,0.1,0.8,0.4l3.3,4.4c0.1,0.2,0.2,0.4,0.2,0.6l-2.2,57.8
			C280.1,343.5,279.7,343.9,279.2,343.9z M275.8,342h2.5l2.2-56.5l-2.3-3.1l-2.3,3.1V342z M122.3,343.6c-0.3,0-0.7-0.2-0.8-0.5
			c-0.3-0.5-0.1-1.1,0.3-1.3c14.5-8.6,69.9-27.6,82.3-31.8l-21.3-9.6c-23.2-10.4-60.2-16-60.6-16c-0.5-0.1-0.9-0.6-0.8-1.1
			c0.1-0.5,0.6-0.9,1.1-0.8c0.4,0.1,37.7,5.6,61.1,16.2l23.6,10.6c0.4,0.2,0.6,0.5,0.6,0.9c0,0.4-0.3,0.8-0.7,0.9
			c-0.7,0.2-68.5,23.1-84.3,32.4C122.6,343.5,122.4,343.6,122.3,343.6z M172.1,289.5c-0.1,0-0.2,0-0.3,0l-10.7-3.3
			c-10.5-3.2-38.6-7.9-38.8-8c-0.5-0.1-0.9-0.6-0.8-1.1c0.1-0.5,0.6-0.9,1.1-0.8c1.2,0.2,28.5,4.8,39.1,8l10.3,3.2l18.6-10
			c-10.9-1.4-48.7-5.9-68.4-5.6c0,0,0,0,0,0c-0.5,0-1-0.4-1-1c0-0.5,0.4-1,1-1c23.2-0.3,71.2,6,71.7,6c0.4,0.1,0.8,0.4,0.8,0.8
			c0.1,0.4-0.1,0.8-0.5,1l-21.7,11.7C172.5,289.4,172.3,289.5,172.1,289.5z"/>
	</g>
	<path class="st0" d="M720.6,313.3h-6.5v-9.7h-10.6v9.7h-5.3v6.8h5.3v14.3c0,8.8,2.3,11.4,11.3,11.4c1.9,0,3.9-0.2,5.8-0.3v-7.8
		c-0.9,0-1.9,0.1-2.7,0.1c-2.3,0-3.8-0.6-3.8-3.1v-14.6h6.5V313.3z M662.1,345.5h10.6v-17.6c0-3.5,1.7-6.9,5.7-6.9
		c5.8,0,5.3,4.5,5.3,8.9v15.6h10.6v-20.7c0-4.6-0.9-12.5-11.6-12.5c-3.8,0-8.2,2-10.1,5.3h-0.1v-4.4h-10.2V345.5z M656.8,332
		c0.5-10.9-5.3-19.6-16.8-19.6c-9.5,0-17.4,7.1-17.4,16.9c0,10.8,7.1,17.1,17.6,17.1c7.2,0,14.1-3.2,16-10.7h-9.9
		c-1,2.4-3.5,3.5-6,3.5c-4.5,0-7-2.9-7.2-7.3H656.8z M633.2,326.1c0.6-3.9,3.1-6.6,6.8-6.6c3.5,0,6.1,3,6.3,6.6H633.2z M566.7,345.5
		h10.6v-15.7c0-6.6,1.6-8.8,5.4-8.8c2.9,0,4,2.4,4,6.1v18.3h10.6v-15.8c0-5.2,0.4-8.7,5-8.7c2.7,0,4.4,2,4.4,5.5v18.9h10.6v-19.2
		c0-6.1-1.1-13.9-11.4-13.9c-4.3,0-7.5,1.8-10.1,5.2c-1.7-3.9-5.3-5.2-9.4-5.2c-3.9,0-7.3,2.1-9.2,5.3h-0.1v-4.4h-10.2V345.5z
		 M561.4,332c0.5-10.9-5.3-19.6-16.8-19.6c-9.5,0-17.4,7.1-17.4,16.9c0,10.8,7.1,17.1,17.6,17.1c7.2,0,14.1-3.2,16-10.7H551
		c-1,2.4-3.5,3.5-6,3.5c-4.5,0-7-2.9-7.2-7.3H561.4z M537.8,326.1c0.6-3.9,3.1-6.6,6.8-6.6c3.5,0,6.1,3,6.3,6.6H537.8z M522,313.3
		h-10.1v4h-0.1c-1.9-3.3-4.8-5-8.6-5c-9.1,0-14.2,7.2-14.2,15.8c0,9.1,4.4,16,14.2,16c3.4,0,6.6-1.7,8.6-4.7h0.1v3
		c0,4-0.5,7.5-5.5,7.5c-1.6,0-2.9-0.2-3.9-0.7c-1-0.5-1.5-1.4-1.8-2.8h-10.6c1.2,8.6,8.3,10.3,15.8,10.3c15.1,0,16.1-9.9,16.1-15.2
		V313.3z M512,328.5c0,4-1.9,7.5-6.4,7.5c-4.3,0-6.1-3.8-6.1-7.6c0-4,1.5-8.1,6.1-8.1C510.4,320.4,512,324.4,512,328.5 M463.5,323.2
		c0.5-2.7,2.4-4,5.3-4c2.2,0,5.1,0.9,5.1,3.4c0,2-1,2.6-2.8,3c-7.3,1.5-18.7,0.7-18.7,11.2c0,6.6,4.8,9.7,11,9.7
		c3.9,0,7.9-1.1,10.6-4c0.1,1.1,0.2,2,0.6,3h10.6c-1.2-2.5-1.2-5.5-1.2-8.3v-14.1c0-9.1-7.4-10.8-15-10.8c-3.7,0-7.4,0.6-10.2,2.2
		c-2.9,1.7-4.8,4.4-5,8.6H463.5z M462.8,336.2c0-2.5,2-3.5,4.3-4.1c2.3-0.6,5-0.8,6.5-1.7c0.2,6.6-1.4,9.5-6.5,9.5
		C464.9,339.9,462.8,338.8,462.8,336.2 M414.9,345.5h10.6v-17.6c0-3.5,1.7-6.9,5.7-6.9c5.8,0,5.3,4.5,5.3,8.9v15.6H447v-20.7
		c0-4.6-0.9-12.5-11.6-12.5c-3.9,0-8.2,2-10.1,5.3h-0.1v-4.4h-10.2V345.5z M387.5,323.2c0.5-2.7,2.4-4,5.3-4c2.2,0,5.1,0.9,5.1,3.4
		c0,2-1,2.6-2.8,3c-7.3,1.5-18.7,0.7-18.7,11.2c0,6.6,4.8,9.7,11,9.7c3.9,0,7.9-1.1,10.6-4c0.1,1.1,0.2,2,0.6,3h10.6
		c-1.2-2.5-1.2-5.5-1.2-8.3v-14.1c0-9.1-7.4-10.8-15-10.8c-3.7,0-7.4,0.6-10.2,2.2c-2.9,1.7-4.8,4.4-5,8.6H387.5z M386.9,336.2
		c0-2.5,2-3.5,4.3-4.1c2.3-0.6,5-0.8,6.5-1.7c0.2,6.6-1.4,9.5-6.5,9.5C389,339.9,386.9,338.8,386.9,336.2 M321.1,345.5H332v-33.6
		h0.1l9.3,33.6h8.8l9.3-33.6h0.1v33.6h10.9v-44.3h-17l-7.6,29.5h-0.1l-7.6-29.5h-17V345.5z"/>
	<path class="st0" d="M699.8,241.6h-10.6v15.6h-0.1c-2.2-2.9-5.2-4.4-9.2-4.4c-9.1,0-13.6,7.9-13.6,16.3c0,9.1,4.3,17.8,14.4,17.8
		c3.7,0,6.8-1.6,8.9-4.7h0.1v3.7h10.1V241.6z M683.3,260.8c4.6,0,6.3,4.3,6.3,8.9c0,4.1-1.1,9-6.3,9c-4.8,0-6.5-4.9-6.5-9.3
		C676.9,265.4,678.5,260.8,683.3,260.8 M628.8,285.9h10.6v-17.6c0-3.5,1.7-6.9,5.7-6.9c5.8,0,5.3,4.5,5.3,8.9v15.6h10.6v-20.7
		c0-4.6-0.9-12.5-11.6-12.5c-3.8,0-8.2,2-10.1,5.3H639v-4.4h-10.2V285.9z M601.4,263.6c0.5-2.7,2.4-4,5.3-4c2.2,0,5.1,0.9,5.1,3.4
		c0,2-1,2.6-2.8,3c-7.3,1.5-18.7,0.7-18.7,11.2c0,6.6,4.8,9.7,11,9.7c3.8,0,7.9-1.1,10.6-4c0.1,1.1,0.2,2,0.6,3H623
		c-1.2-2.5-1.2-5.5-1.2-8.3v-14.1c0-9.1-7.4-10.8-15-10.8c-3.7,0-7.4,0.6-10.2,2.2c-2.9,1.7-4.8,4.4-5,8.6H601.4z M600.8,276.7
		c0-2.5,2-3.5,4.3-4.1c2.3-0.6,5-0.8,6.5-1.7c0.2,6.6-1.4,9.5-6.5,9.5C602.8,280.3,600.8,279.3,600.8,276.7 M554.4,285.9h32.2V276
		H566v-34.4h-11.5V285.9z M477,285.9h10.6v-15.7c0-6.6,1.6-8.8,5.4-8.8c2.9,0,4,2.4,4,6.1v18.3h10.6v-15.8c0-5.2,0.4-8.7,5-8.7
		c2.7,0,4.4,2,4.4,5.5v18.9h10.6v-19.2c0-6.1-1.1-13.9-11.4-13.9c-4.3,0-7.5,1.8-10.1,5.2c-1.7-3.9-5.3-5.2-9.4-5.2
		c-3.9,0-7.3,2.1-9.2,5.3h-0.1v-4.4H477V285.9z M449.6,263.6c0.5-2.7,2.4-4,5.3-4c2.2,0,5.1,0.9,5.1,3.4c0,2-1,2.6-2.8,3
		c-7.3,1.5-18.7,0.7-18.7,11.2c0,6.6,4.8,9.7,11,9.7c3.8,0,7.9-1.1,10.6-4c0.1,1.1,0.2,2,0.6,3h10.6c-1.2-2.5-1.2-5.5-1.2-8.3v-14.1
		c0-9.1-7.4-10.8-15-10.8c-3.7,0-7.4,0.6-10.2,2.2c-2.9,1.7-4.8,4.4-5,8.6H449.6z M449,276.7c0-2.5,2-3.5,4.3-4.1
		c2.3-0.6,5-0.8,6.5-1.7c0.2,6.6-1.4,9.5-6.5,9.5C451,280.3,449,279.3,449,276.7 M422.2,285.9h10.6v-44.3h-10.6V285.9z M403.8,285.9
		h10.6v-44.3h-10.6V285.9z M376.1,263.6c0.5-2.7,2.4-4,5.3-4c2.2,0,5.1,0.9,5.1,3.4c0,2-1,2.6-2.8,3c-7.3,1.5-18.7,0.7-18.7,11.2
		c0,6.6,4.8,9.7,11,9.7c3.8,0,7.9-1.1,10.6-4c0.1,1.1,0.2,2,0.6,3h10.6c-1.2-2.5-1.2-5.5-1.2-8.3v-14.1c0-9.1-7.4-10.8-15-10.8
		c-3.7,0-7.4,0.6-10.2,2.2c-2.9,1.7-4.8,4.4-5,8.6H376.1z M375.4,276.7c0-2.5,2-3.5,4.3-4.1c2.3-0.6,5-0.8,6.5-1.7
		c0.2,6.6-1.4,9.5-6.5,9.5C377.5,280.3,375.4,279.3,375.4,276.7 M320.9,285.9h11.5v-18.3h15.2v18.3h11.5v-44.3h-11.5v16.1h-15.2
		v-16.1h-11.5V285.9z"/>
	<g>
		<rect x="314" y="210.8" class="st0" width="406.6" height="3.6"/>
	</g>
	<g>
		<rect x="314" y="381.6" class="st0" width="406.6" height="3.6"/>
	</g>
</g>
</svg>
